<?xml version="1.0" encoding="UTF-8" standalone="no"?><svg xmlns="http://www.w3.org/2000/svg" xmlns:xlink="http://www.w3.org/1999/xlink" contentScriptType="application/ecmascript" contentStyleType="text/css" height="402px" preserveAspectRatio="none" style="width:328px;height:402px;" version="1.1" viewBox="0 0 328 402" width="328px" zoomAndPan="magnify"><defs/><g><rect fill="#FAFAFA" height="390.5508" style="stroke:#6658EA;stroke-width:1.0;" width="162" x="153.5" y="6"/><text fill="#FFFFFF" font-family="'Titillium Web'" font-size="10" lengthAdjust="spacing" textLength="47" x="211" y="15.668">Some Box</text><rect fill="#FFFFFF" height="197.2188" style="stroke:#6658EA;stroke-width:1.0;" width="10" x="76" y="105.5547"/><rect fill="#FFFFFF" height="107.1094" style="stroke:#6658EA;stroke-width:1.0;" width="10" x="191" y="169.8867"/><rect fill="#FFFFFF" height="27.7773" style="stroke:#6658EA;stroke-width:1.0;" width="10" x="275" y="216.4414"/><rect fill="#FFFFFF" height="67.332" style="stroke:#000000;stroke-width:2.0;" width="174" x="147.5" y="184.8867"/><rect fill="#FFFFFF" height="27.7773" style="stroke:none;stroke-width:1.0;" width="174" x="147.5" y="224.4414"/><line style="stroke:#6658EA;stroke-width:1.0;stroke-dasharray:5.0,5.0;" x1="19" x2="19" y1="77.7773" y2="320.7734"/><line style="stroke:#6658EA;stroke-width:1.0;stroke-dasharray:5.0,5.0;" x1="81" x2="81" y1="77.7773" y2="320.7734"/><line style="stroke:#6658EA;stroke-width:1.0;stroke-dasharray:5.0,5.0;" x1="195.5" x2="195.5" y1="77.7773" y2="320.7734"/><line style="stroke:#6658EA;stroke-width:1.0;stroke-dasharray:5.0,5.0;" x1="279.5" x2="279.5" y1="77.7773" y2="320.7734"/><text fill="#14213D" font-family="'Titillium Web'" font-size="10" lengthAdjust="spacing" textLength="22" x="5" y="75.668">User</text><ellipse cx="19" cy="14" fill="#6658EA" rx="8" ry="8" style="stroke:#6658EA;stroke-width:1.0;"/><path d="M19,22 L19,49 M6,30 L32,30 M19,49 L6,64 M19,49 L32,64 " fill="none" style="stroke:#6658EA;stroke-width:1.0;"/><text fill="#14213D" font-family="'Titillium Web'" font-size="10" lengthAdjust="spacing" textLength="22" x="5" y="329.4414">User</text><ellipse cx="19" cy="340.5508" fill="#6658EA" rx="8" ry="8" style="stroke:#6658EA;stroke-width:1.0;"/><path d="M19,348.5508 L19,375.5508 M6,356.5508 L32,356.5508 M19,375.5508 L6,390.5508 M19,375.5508 L32,390.5508 " fill="none" style="stroke:#6658EA;stroke-width:1.0;"/><rect fill="#6658EA" height="25.7773" style="stroke:#FFFFFF;stroke-width:0.0;" width="64" x="49" y="51"/><text fill="#FFFFFF" font-family="'Titillium Web'" font-size="10" lengthAdjust="spacing" textLength="50" x="56" y="67.668">First Class</text><rect fill="#6658EA" height="25.7773" style="stroke:#FFFFFF;stroke-width:0.0;" width="64" x="49" y="319.7734"/><text fill="#FFFFFF" font-family="'Titillium Web'" font-size="10" lengthAdjust="spacing" textLength="50" x="56" y="336.4414">First Class</text><rect fill="#6658EA" height="25.7773" style="stroke:#FFFFFF;stroke-width:0.0;" width="77" x="157.5" y="51"/><text fill="#FFFFFF" font-family="'Titillium Web'" font-size="10" lengthAdjust="spacing" textLength="63" x="164.5" y="67.668">Second Class</text><rect fill="#6658EA" height="25.7773" style="stroke:#FFFFFF;stroke-width:0.0;" width="77" x="157.5" y="319.7734"/><text fill="#FFFFFF" font-family="'Titillium Web'" font-size="10" lengthAdjust="spacing" textLength="63" x="164.5" y="336.4414">Second Class</text><rect fill="#6658EA" height="25.7773" style="stroke:#FFFFFF;stroke-width:0.0;" width="63" x="248.5" y="51"/><text fill="#FFFFFF" font-family="'Titillium Web'" font-size="10" lengthAdjust="spacing" textLength="49" x="255.5" y="67.668">Last Class</text><rect fill="#6658EA" height="25.7773" style="stroke:#FFFFFF;stroke-width:0.0;" width="63" x="248.5" y="319.7734"/><text fill="#FFFFFF" font-family="'Titillium Web'" font-size="10" lengthAdjust="spacing" textLength="49" x="255.5" y="336.4414">Last Class</text><rect fill="#FFFFFF" height="197.2188" style="stroke:#6658EA;stroke-width:1.0;" width="10" x="76" y="105.5547"/><rect fill="#FFFFFF" height="107.1094" style="stroke:#6658EA;stroke-width:1.0;" width="10" x="191" y="169.8867"/><rect fill="#FFFFFF" height="27.7773" style="stroke:#6658EA;stroke-width:1.0;" width="10" x="275" y="216.4414"/><polygon fill="#6658EA" points="64,101.5547,74,105.5547,64,109.5547,68,105.5547" style="stroke:#6658EA;stroke-width:1.0;"/><line style="stroke:#6658EA;stroke-width:1.0;" x1="19" x2="70" y1="105.5547" y2="105.5547"/><text fill="#14213D" font-family="'Titillium Web'" font-size="10" lengthAdjust="spacing" textLength="38" x="26" y="101.4453">DoWork</text><rect fill="#FFFFFF" height="33.5547" style="stroke:#000000;stroke-width:2.0;" width="70" x="46" y="113.5547"/><polygon fill="#EEEEEE" points="46,113.5547,105,113.5547,105,116.5547,95,126.5547,46,126.5547,46,113.5547" style="stroke:#000000;stroke-width:2.0;"/><text fill="#14213D" font-family="'Titillium Web'" font-size="10" lengthAdjust="spacing" textLength="14" x="59" y="125.2227">ref</text><text fill="#14213D" font-family="'Titillium Web'" font-size="10" lengthAdjust="spacing" textLength="53" x="54.5" y="140.2227">"Some Ref"</text><polygon fill="#6658EA" points="179,165.8867,189,169.8867,179,173.8867,183,169.8867" style="stroke:#6658EA;stroke-width:1.0;"/><line style="stroke:#6658EA;stroke-width:1.0;" x1="86" x2="185" y1="169.8867" y2="169.8867"/><text fill="#14213D" font-family="'Titillium Web'" font-size="10" lengthAdjust="spacing" textLength="75" x="93" y="165.7773">Create Request</text><path d="M147.5,184.8867 L205.5,184.8867 L205.5,187.8867 L195.5,197.8867 L147.5,197.8867 L147.5,184.8867 " fill="#EEEEEE" style="stroke:#000000;stroke-width:1.0;"/><rect fill="none" height="67.332" style="stroke:#000000;stroke-width:2.0;" width="174" x="147.5" y="184.8867"/><text fill="#14213D" font-family="'Titillium Web'" font-size="10" lengthAdjust="spacing" textLength="13" x="162.5" y="195.5547">alt</text><text fill="#14213D" font-family="'Titillium Web'" font-size="10" lengthAdjust="spacing" textLength="51" x="220.5" y="196.5547">[condition]</text><polygon fill="#6658EA" points="263,212.4414,273,216.4414,263,220.4414,267,216.4414" style="stroke:#6658EA;stroke-width:1.0;"/><line style="stroke:#6658EA;stroke-width:1.0;" x1="201" x2="269" y1="216.4414" y2="216.4414"/><text fill="#14213D" font-family="'Titillium Web'" font-size="10" lengthAdjust="spacing" textLength="38" x="208" y="212.332">DoWork</text><line style="stroke:#000000;stroke-width:1.0;stroke-dasharray:2.0,2.0;" x1="147.5" x2="321.5" y1="225.4414" y2="225.4414"/><polygon fill="#6658EA" points="212,240.2188,202,244.2188,212,248.2188,208,244.2188" style="stroke:#6658EA;stroke-width:1.0;"/><line style="stroke:#6658EA;stroke-width:1.0;stroke-dasharray:2.0,2.0;" x1="206" x2="279" y1="244.2188" y2="244.2188"/><text fill="#14213D" font-family="'Titillium Web'" font-size="10" lengthAdjust="spacing" textLength="50" x="218" y="240.1094">WorkDone</text><line style="stroke:#6658EA;stroke-width:2.0;" x1="271" x2="289" y1="235.2188" y2="253.2188"/><line style="stroke:#6658EA;stroke-width:2.0;" x1="271" x2="289" y1="253.2188" y2="235.2188"/><polygon fill="#6658EA" points="97,272.9961,87,276.9961,97,280.9961,93,276.9961" style="stroke:#6658EA;stroke-width:1.0;"/><line style="stroke:#6658EA;stroke-width:1.0;stroke-dasharray:2.0,2.0;" x1="91" x2="195" y1="276.9961" y2="276.9961"/><text fill="#14213D" font-family="'Titillium Web'" font-size="10" lengthAdjust="spacing" textLength="81" x="103" y="272.8867">Request Created</text><polygon fill="#6658EA" points="30,298.7734,20,302.7734,30,306.7734,26,302.7734" style="stroke:#6658EA;stroke-width:1.0;"/><line style="stroke:#6658EA;stroke-width:1.0;stroke-dasharray:2.0,2.0;" x1="24" x2="80" y1="302.7734" y2="302.7734"/><text fill="#14213D" font-family="'Titillium Web'" font-size="10" lengthAdjust="spacing" textLength="25" x="36" y="298.6641">Done</text></g></svg>