<?xml version="1.0" encoding="UTF-8" standalone="no"?><svg xmlns="http://www.w3.org/2000/svg" xmlns:xlink="http://www.w3.org/1999/xlink" contentScriptType="application/ecmascript" contentStyleType="text/css" height="175px" preserveAspectRatio="none" style="width:209px;height:175px;" version="1.1" viewBox="0 0 209 175" width="209px" zoomAndPan="magnify"><defs/><g><!--MD5=[b2f23c4a06b9bc4c947f037f864aea3c]
class Class01--><rect fill="#FEFECE" height="44" id="Class01" style="stroke:#A80036;stroke-width:1.5;" width="66" x="7" y="7"/><ellipse cx="20" cy="21" fill="#ADD1B2" rx="9" ry="9" style="stroke:#A80036;stroke-width:1.0;"/><path d="M21.2393,24.7412 Q20.8633,24.9414 20.4678,25.0415 Q20.0723,25.1416 19.6279,25.1416 Q18.2266,25.1416 17.4526,24.1504 Q16.6787,23.1592 16.6787,21.3623 Q16.6787,19.5752 17.4575,18.5767 Q18.2363,17.5781 19.6279,17.5781 Q20.0723,17.5781 20.4678,17.6782 Q20.8633,17.7783 21.2393,17.9785 L21.2393,18.9893 Q20.8779,18.6914 20.4629,18.5352 Q20.0479,18.3789 19.6279,18.3789 Q18.666,18.3789 18.1875,19.1211 Q17.709,19.8633 17.709,21.3623 Q17.709,22.8564 18.1875,23.5986 Q18.666,24.3408 19.6279,24.3408 Q20.0576,24.3408 20.4702,24.1846 Q20.8828,24.0283 21.2393,23.7305 Z " fill="#14213D"/><text fill="#14213D" font-family="'Titillium Web'" font-size="10" lengthAdjust="spacing" textLength="38" x="32" y="24.7793">Class01</text><line style="stroke:#A80036;stroke-width:1.5;" x1="8" x2="72" y1="35" y2="35"/><line style="stroke:#A80036;stroke-width:1.5;" x1="8" x2="72" y1="43" y2="43"/><!--MD5=[67b7f66b9c6b27d60ed6d0424460c06c]
class Class02--><rect fill="#FEFECE" height="44" id="Class02" style="stroke:#A80036;stroke-width:1.5;" width="66" x="7" y="124"/><ellipse cx="20" cy="138" fill="#ADD1B2" rx="9" ry="9" style="stroke:#A80036;stroke-width:1.0;"/><path d="M21.2393,141.7412 Q20.8633,141.9414 20.4678,142.0415 Q20.0723,142.1416 19.6279,142.1416 Q18.2266,142.1416 17.4526,141.1504 Q16.6787,140.1592 16.6787,138.3623 Q16.6787,136.5752 17.4575,135.5767 Q18.2363,134.5781 19.6279,134.5781 Q20.0723,134.5781 20.4678,134.6782 Q20.8633,134.7783 21.2393,134.9785 L21.2393,135.9893 Q20.8779,135.6914 20.4629,135.5352 Q20.0479,135.3789 19.6279,135.3789 Q18.666,135.3789 18.1875,136.1211 Q17.709,136.8633 17.709,138.3623 Q17.709,139.8564 18.1875,140.5986 Q18.666,141.3408 19.6279,141.3408 Q20.0576,141.3408 20.4702,141.1846 Q20.8828,141.0283 21.2393,140.7305 Z " fill="#14213D"/><text fill="#14213D" font-family="'Titillium Web'" font-size="10" lengthAdjust="spacing" textLength="38" x="32" y="141.7793">Class02</text><line style="stroke:#A80036;stroke-width:1.5;" x1="8" x2="72" y1="152" y2="152"/><line style="stroke:#A80036;stroke-width:1.5;" x1="8" x2="72" y1="160" y2="160"/><!--MD5=[e34eefe962fcadefcbf83660cc436420]
class Class03--><rect fill="#FEFECE" height="44" id="Class03" style="stroke:#A80036;stroke-width:1.5;" width="66" x="108" y="7"/><ellipse cx="121" cy="21" fill="#ADD1B2" rx="9" ry="9" style="stroke:#A80036;stroke-width:1.0;"/><path d="M122.2393,24.7412 Q121.8633,24.9414 121.4678,25.0415 Q121.0723,25.1416 120.6279,25.1416 Q119.2266,25.1416 118.4526,24.1504 Q117.6787,23.1592 117.6787,21.3623 Q117.6787,19.5752 118.4575,18.5767 Q119.2363,17.5781 120.6279,17.5781 Q121.0723,17.5781 121.4678,17.6782 Q121.8633,17.7783 122.2393,17.9785 L122.2393,18.9893 Q121.8779,18.6914 121.4629,18.5352 Q121.0479,18.3789 120.6279,18.3789 Q119.666,18.3789 119.1875,19.1211 Q118.709,19.8633 118.709,21.3623 Q118.709,22.8564 119.1875,23.5986 Q119.666,24.3408 120.6279,24.3408 Q121.0576,24.3408 121.4702,24.1846 Q121.8828,24.0283 122.2393,23.7305 Z " fill="#14213D"/><text fill="#14213D" font-family="'Titillium Web'" font-size="10" lengthAdjust="spacing" textLength="38" x="133" y="24.7793">Class03</text><line style="stroke:#A80036;stroke-width:1.5;" x1="109" x2="173" y1="35" y2="35"/><line style="stroke:#A80036;stroke-width:1.5;" x1="109" x2="173" y1="43" y2="43"/><!--MD5=[d53a23475d458e69a9e37a48405189e2]
class Class04--><rect fill="#FEFECE" height="44" id="Class04" style="stroke:#A80036;stroke-width:1.5;" width="66" x="108" y="124"/><ellipse cx="121" cy="138" fill="#ADD1B2" rx="9" ry="9" style="stroke:#A80036;stroke-width:1.0;"/><path d="M122.2393,141.7412 Q121.8633,141.9414 121.4678,142.0415 Q121.0723,142.1416 120.6279,142.1416 Q119.2266,142.1416 118.4526,141.1504 Q117.6787,140.1592 117.6787,138.3623 Q117.6787,136.5752 118.4575,135.5767 Q119.2363,134.5781 120.6279,134.5781 Q121.0723,134.5781 121.4678,134.6782 Q121.8633,134.7783 122.2393,134.9785 L122.2393,135.9893 Q121.8779,135.6914 121.4629,135.5352 Q121.0479,135.3789 120.6279,135.3789 Q119.666,135.3789 119.1875,136.1211 Q118.709,136.8633 118.709,138.3623 Q118.709,139.8564 119.1875,140.5986 Q119.666,141.3408 120.6279,141.3408 Q121.0576,141.3408 121.4702,141.1846 Q121.8828,141.0283 122.2393,140.7305 Z " fill="#14213D"/><text fill="#14213D" font-family="'Titillium Web'" font-size="10" lengthAdjust="spacing" textLength="38" x="133" y="141.7793">Class04</text><line style="stroke:#A80036;stroke-width:1.5;" x1="109" x2="173" y1="152" y2="152"/><line style="stroke:#A80036;stroke-width:1.5;" x1="109" x2="173" y1="160" y2="160"/><!--MD5=[3ab52052fd7925c5f64fca5d41d6866e]
reverse link Class01 to Class02--><path codeLine="88" d="M40,64.23 C40,83.51 40,106.99 40,123.65 " fill="none" id="Class01-backto-Class02" style="stroke:#6AFDEF;stroke-width:1.0;"/><polygon fill="#6AFDEF" points="40,51.09,36,57.09,40,63.09,44,57.09,40,51.09" style="stroke:#6AFDEF;stroke-width:1.0;"/><text fill="#14213D" font-family="'Titillium Web'" font-size="10" lengthAdjust="spacing" textLength="41" x="41" y="91.668">contains</text><text fill="#14213D" font-family="'Titillium Web'" font-size="10" lengthAdjust="spacing" textLength="6" x="33.1563" y="68.627">1</text><text fill="#14213D" font-family="'Titillium Web'" font-size="10" lengthAdjust="spacing" textLength="26" x="10.0188" y="113.9079">many</text><!--MD5=[0815ca07f8d628dc1a46a48ef0cd4c01]
reverse link Class03 to Class04--><path codeLine="90" d="M141,64.23 C141,83.51 141,106.99 141,123.65 " fill="none" id="Class03-backto-Class04" style="stroke:#6AFDEF;stroke-width:1.0;"/><polygon fill="#FFFFFF" points="141,51.09,137,57.09,141,63.09,145,57.09,141,51.09" style="stroke:#6AFDEF;stroke-width:1.0;"/><text fill="#14213D" font-family="'Titillium Web'" font-size="10" lengthAdjust="spacing" textLength="59" x="142" y="91.668">aggregation</text></g></svg>