<?xml version="1.0" encoding="UTF-8" standalone="no"?><svg xmlns="http://www.w3.org/2000/svg" xmlns:xlink="http://www.w3.org/1999/xlink" contentScriptType="application/ecmascript" contentStyleType="text/css" height="178px" preserveAspectRatio="none" style="width:283px;height:178px;" version="1.1" viewBox="0 0 283 178" width="283px" zoomAndPan="magnify"><defs/><g><!--MD5=[bdbee0fc59a29b9ec21c283a244fef13]
entity DA--><ellipse cx="35.5" cy="28" fill="#FEFECE" rx="8" ry="8" style="stroke:#A80036;stroke-width:1.5;"/><text fill="#14213D" font-family="'Titillium Web'" font-size="10" lengthAdjust="spacing" textLength="59" x="6" y="54.668">Data Access</text><!--MD5=[cbd7cda55f2530e2efe43ec72c097853]
entity First Component--><rect fill="#FEFECE" height="41.7773" style="stroke:#A80036;stroke-width:1.5;" width="120" x="79.5" y="7"/><rect fill="#FEFECE" height="10" style="stroke:#A80036;stroke-width:1.5;" width="15" x="179.5" y="12"/><rect fill="#FEFECE" height="2" style="stroke:#A80036;stroke-width:1.5;" width="4" x="177.5" y="14"/><rect fill="#FEFECE" height="2" style="stroke:#A80036;stroke-width:1.5;" width="4" x="177.5" y="18"/><text fill="#14213D" font-family="'Titillium Web'" font-size="10" lengthAdjust="spacing" textLength="80" x="94.5" y="36.668">First Component</text><!--MD5=[96f7e1299d4a43069e6ed32352fcac20]
entity HTTP--><ellipse cx="139.5" cy="143" fill="#FEFECE" rx="8" ry="8" style="stroke:#A80036;stroke-width:1.5;"/><text fill="#14213D" font-family="'Titillium Web'" font-size="10" lengthAdjust="spacing" textLength="25" x="127" y="169.668">HTTP</text><!--MD5=[cfe1c00cd2ddda50f37fc5622644ebdd]
entity Web Server--><rect fill="#FEFECE" height="41.7773" style="stroke:#A80036;stroke-width:1.5;" width="94" x="183.5" y="122"/><rect fill="#FEFECE" height="10" style="stroke:#A80036;stroke-width:1.5;" width="15" x="257.5" y="127"/><rect fill="#FEFECE" height="2" style="stroke:#A80036;stroke-width:1.5;" width="4" x="255.5" y="129"/><rect fill="#FEFECE" height="2" style="stroke:#A80036;stroke-width:1.5;" width="4" x="255.5" y="133"/><text fill="#14213D" font-family="'Titillium Web'" font-size="10" lengthAdjust="spacing" textLength="54" x="198.5" y="151.668">Web Server</text><!--MD5=[363fa5e0e34baebc00cf77642f1dd18b]
link DA to First Component--><path d="M44.84,28 C56.31,28 67.77,28 79.23,28 " fill="none" id="DA-First Component" style="stroke:#6658EA;stroke-width:1.0;"/><!--MD5=[b31ac7abd68f04ca600009a3528fb133]
link First Component to HTTP--><path d="M139.5,49.2 C139.5,72.18 139.5,109.05 139.5,128.68 " fill="none" id="First Component-to-HTTP" style="stroke:#6658EA;stroke-width:1.0;stroke-dasharray:7.0,7.0;"/><polygon fill="#6658EA" points="139.5,133.74,143.5,124.74,139.5,128.74,135.5,124.74,139.5,133.74" style="stroke:#6658EA;stroke-width:1.0;"/><text fill="#14213D" font-family="'Titillium Web'" font-size="10" lengthAdjust="spacing" textLength="17" x="140.5" y="89.668">use</text><!--MD5=[3904698d0307f1ddb5506dbe8c7f52ee]
link HTTP to Web Server--><path d="M148.74,143 C160.24,143 171.74,143 183.23,143 " fill="none" id="HTTP-Web Server" style="stroke:#6658EA;stroke-width:1.0;"/></g></svg>