<?xml version="1.0" encoding="UTF-8" standalone="no"?><svg xmlns="http://www.w3.org/2000/svg" xmlns:xlink="http://www.w3.org/1999/xlink" contentScriptType="application/ecmascript" contentStyleType="text/css" height="194px" preserveAspectRatio="none" style="width:278px;height:194px;" version="1.1" viewBox="0 0 278 194" width="278px" zoomAndPan="magnify"><defs/><g><!--MD5=[fee662a292a0353a69bd162820bae93b]
entity User--><ellipse cx="28" cy="27.8867" fill="#6658EA" rx="8" ry="8" style="stroke:#6658EA;stroke-width:1.5;"/><path d="M28,35.8867 L28,62.8867 M15,43.8867 L41,43.8867 M28,62.8867 L15,77.8867 M28,62.8867 L41,77.8867 " fill="none" style="stroke:#6658EA;stroke-width:1.5;"/><text fill="#14213D" font-family="'Titillium Web'" font-size="10" lengthAdjust="spacing" textLength="22" x="17" y="90.0547">User</text><text fill="#14213D" font-family="'Titillium Web'" font-size="10" lengthAdjust="spacing" textLength="44" x="6" y="16.2773">«Human»</text><!--MD5=[2519f4b563146138a779359188ab3db5]
entity MySql--><ellipse cx="235" cy="27.8867" fill="#6658EA" rx="8" ry="8" style="stroke:#6658EA;stroke-width:1.5;"/><path d="M235,35.8867 L235,62.8867 M222,43.8867 L248,43.8867 M235,62.8867 L222,77.8867 M235,62.8867 L248,77.8867 " fill="none" style="stroke:#6658EA;stroke-width:1.5;"/><text fill="#14213D" font-family="'Titillium Web'" font-size="10" lengthAdjust="spacing" textLength="73" x="198.5" y="90.0547">Main Database</text><text fill="#14213D" font-family="'Titillium Web'" font-size="10" lengthAdjust="spacing" textLength="65" x="202.5" y="16.2773">«Application»</text><ellipse cx="124.0471" cy="49.833" fill="#FEFECE" rx="39.0471" ry="18.7237" style="stroke:#A80036;stroke-width:1.5;"/><text fill="#14213D" font-family="'Titillium Web'" font-size="10" lengthAdjust="spacing" textLength="54" x="97.0471" y="47.6927">«One Shot»</text><text fill="#14213D" font-family="'Titillium Web'" font-size="10" lengthAdjust="spacing" textLength="23" x="112.5471" y="59.4701">Start</text><ellipse cx="131.2097" cy="170.4332" fill="#FEFECE" rx="69.7097" ry="17.8238" style="stroke:#A80036;stroke-width:1.5;"/><text fill="#14213D" font-family="'Titillium Web'" font-size="10" lengthAdjust="spacing" textLength="34" x="109.9997" y="164.6559">«Main»</text><text fill="#14213D" font-family="'Titillium Web'" font-size="10" lengthAdjust="spacing" textLength="94" x="79.9997" y="176.4333">Use the application</text><!--MD5=[f4b2be5085d6f52f3a0e36c62efcf3ad]
link User to Start--><path d="M50.12,49.6094 C59.95,49.6094 69.78,49.6094 79.61,49.6094 " fill="none" id="User-to-Start" style="stroke:#6658EA;stroke-width:1.0;"/><polygon fill="#6658EA" points="84.75,49.6094,75.75,45.6094,79.75,49.6094,75.75,53.6094,84.75,49.6094" style="stroke:#6658EA;stroke-width:1.0;"/><!--MD5=[9b1e83a301d632e8d5a1d64f176fc1f5]
link User to Use--><path d="M50.1,76.1394 C68.94,97.9094 95.68,128.7994 113.18,149.0194 " fill="none" id="User-to-Use" style="stroke:#6658EA;stroke-width:1.0;"/><polygon fill="#6658EA" points="116.55,152.9094,113.6919,143.4843,113.2808,149.1262,107.6389,148.7151,116.55,152.9094" style="stroke:#6658EA;stroke-width:1.0;"/><!--MD5=[4496f2e9342dd27c0c7444e31e731c8d]
link MySql to Use--><path d="M198.33,92.5594 C181.62,111.6894 162.59,133.4694 149.03,148.9794 " fill="none" id="MySql-to-Use" style="stroke:#6658EA;stroke-width:1.0;"/><polygon fill="#6658EA" points="145.71,152.7794,154.6457,148.6378,149.0015,149.0156,148.6237,143.3714,145.71,152.7794" style="stroke:#6658EA;stroke-width:1.0;"/></g></svg>