<?xml version="1.0" encoding="UTF-8" standalone="no"?><svg xmlns="http://www.w3.org/2000/svg" xmlns:xlink="http://www.w3.org/1999/xlink" contentScriptType="application/ecmascript" contentStyleType="text/css" height="181px" preserveAspectRatio="none" style="width:365px;height:181px;" version="1.1" viewBox="0 0 365 181" width="365px" zoomAndPan="magnify"><defs/><g><!--MD5=[455beceef6f1269795dd52bc15d5237a]
entity AA--><rect fill="#FEFECE" height="53.5547" style="stroke:#A80036;stroke-width:1.5;" width="92" x="7" y="7"/><rect fill="#FEFECE" height="10" style="stroke:#A80036;stroke-width:1.5;" width="15" x="79" y="12"/><rect fill="#FEFECE" height="2" style="stroke:#A80036;stroke-width:1.5;" width="4" x="77" y="14"/><rect fill="#FEFECE" height="2" style="stroke:#A80036;stroke-width:1.5;" width="4" x="77" y="18"/><text fill="#14213D" font-family="'Titillium Web'" font-size="10" lengthAdjust="spacing" textLength="52" x="22" y="36.668">«static lib»</text><text fill="#14213D" font-family="'Titillium Web'" font-size="10" lengthAdjust="spacing" textLength="14" x="41" y="48.4453">AA</text><!--MD5=[c88bc3321355bf5bf45d2a7b231643f2]
entity BB--><rect fill="#FEFECE" height="53.5547" style="stroke:#A80036;stroke-width:1.5;" width="98" x="134" y="7"/><rect fill="#FEFECE" height="10" style="stroke:#A80036;stroke-width:1.5;" width="15" x="212" y="12"/><rect fill="#FEFECE" height="2" style="stroke:#A80036;stroke-width:1.5;" width="4" x="210" y="14"/><rect fill="#FEFECE" height="2" style="stroke:#A80036;stroke-width:1.5;" width="4" x="210" y="18"/><text fill="#14213D" font-family="'Titillium Web'" font-size="10" lengthAdjust="spacing" textLength="58" x="149" y="36.668">«shared lib»</text><text fill="#14213D" font-family="'Titillium Web'" font-size="10" lengthAdjust="spacing" textLength="12" x="172" y="48.4453">BB</text><!--MD5=[36dc586d67e0f1d076b0ce70c9875d3e]
entity CC--><rect fill="#FEFECE" height="53.5547" style="stroke:#A80036;stroke-width:1.5;" width="92" x="267" y="7"/><rect fill="#FEFECE" height="10" style="stroke:#A80036;stroke-width:1.5;" width="15" x="339" y="12"/><rect fill="#FEFECE" height="2" style="stroke:#A80036;stroke-width:1.5;" width="4" x="337" y="14"/><rect fill="#FEFECE" height="2" style="stroke:#A80036;stroke-width:1.5;" width="4" x="337" y="18"/><text fill="#14213D" font-family="'Titillium Web'" font-size="10" lengthAdjust="spacing" textLength="52" x="282" y="36.668">«static lib»</text><text fill="#14213D" font-family="'Titillium Web'" font-size="10" lengthAdjust="spacing" textLength="14" x="301" y="48.4453">CC</text><!--MD5=[08697289393bf1a7348b8f8a03e04260]
entity node1--><polygon fill="#FEFECE" points="18,137,28,127,88,127,88,158.7773,78,168.7773,18,168.7773,18,137" style="stroke:#000000;stroke-width:1.5;"/><line style="stroke:#000000;stroke-width:1.5;" x1="78" x2="88" y1="137" y2="127"/><line style="stroke:#000000;stroke-width:1.5;" x1="18" x2="78" y1="137" y2="137"/><line style="stroke:#000000;stroke-width:1.5;" x1="78" x2="78" y1="137" y2="168.7773"/><text fill="#14213D" font-family="'Titillium Web'" font-size="10" lengthAdjust="spacing" textLength="30" x="33" y="156.668">node1</text><!--MD5=[d4bb979d073464a818782f912af531d1]
entity node2--><polygon fill="#FEFECE" points="123,131,133,121,233,121,233,164.5547,223,174.5547,123,174.5547,123,131" style="stroke:#000000;stroke-width:1.5;"/><line style="stroke:#000000;stroke-width:1.5;" x1="223" x2="233" y1="131" y2="121"/><line style="stroke:#000000;stroke-width:1.5;" x1="123" x2="223" y1="131" y2="131"/><line style="stroke:#000000;stroke-width:1.5;" x1="223" x2="223" y1="131" y2="174.5547"/><text fill="#14213D" font-family="'Titillium Web'" font-size="10" lengthAdjust="spacing" textLength="70" x="138" y="150.668">«shared node»</text><text fill="#14213D" font-family="'Titillium Web'" font-size="10" lengthAdjust="spacing" textLength="30" x="158" y="162.4453">node2</text><!--MD5=[6f9d8e1d6f8fed1334eabf4f71d6adb2]
entity Production--><path d="M268,137.5 C268,127.5 304,127.5 304,127.5 C304,127.5 340,127.5 340,137.5 L340,158.2773 C340,168.2773 304,168.2773 304,168.2773 C304,168.2773 268,168.2773 268,158.2773 L268,137.5 " fill="#FEFECE" style="stroke:#000000;stroke-width:1.5;"/><path d="M268,137.5 C268,147.5 304,147.5 304,147.5 C304,147.5 340,147.5 340,137.5 " fill="none" style="stroke:#000000;stroke-width:1.5;"/><text fill="#14213D" font-family="'Titillium Web'" font-size="10" lengthAdjust="spacing" textLength="52" x="278" y="161.168">Production</text><!--MD5=[4288dd51f75d166ce9a821eb41c3d62a]
link AA to BB--><!--MD5=[3e1087b042c6d1258e33fafe01d77239]
link BB to CC--><!--MD5=[5ebd9b97e92caa46a1d3cd5cd6999920]
link AA to node1--><!--MD5=[ede45bff198f30e1688a21af6fccdacf]
link node1 to node2--><!--MD5=[42e0570bab5da072b1bcf22c0d2123f7]
link node2 to Production--></g></svg>