<?xml version="1.0" encoding="UTF-8" standalone="no"?><svg xmlns="http://www.w3.org/2000/svg" xmlns:xlink="http://www.w3.org/1999/xlink" contentScriptType="application/ecmascript" contentStyleType="text/css" height="180px" preserveAspectRatio="none" style="width:222px;height:180px;" version="1.1" viewBox="0 0 222 180" width="222px" zoomAndPan="magnify"><defs/><g><!--class Class01--><rect fill="#FEFECE" height="44" id="Class01" style="stroke: #A80036; stroke-width: 1.5;" width="66" x="16" y="8"/><ellipse cx="29" cy="22" fill="#ADD1B2" rx="9" ry="9" style="stroke: #A80036; stroke-width: 1.0;"/><path d="M30.7344,25.2344 Q30.3594,25.4375 29.9688,25.5391 Q29.5781,25.6406 29.125,25.6406 Q27.7344,25.6406 26.9531,24.6484 Q26.1719,23.6563 26.1719,21.8594 Q26.1719,20.0781 26.9531,19.0781 Q27.7344,18.0781 29.125,18.0781 Q29.5781,18.0781 29.9688,18.1797 Q30.3594,18.2813 30.7344,18.4844 L30.7344,19.4844 Q30.375,19.1875 29.9609,19.0313 Q29.5469,18.875 29.125,18.875 Q28.1719,18.875 27.6875,19.6172 Q27.2031,20.3594 27.2031,21.8594 Q27.2031,23.3594 27.6875,24.1016 Q28.1719,24.8438 29.125,24.8438 Q29.5625,24.8438 29.9766,24.6875 Q30.3906,24.5313 30.7344,24.2344 L30.7344,25.2344 Z "/><text fill="#222931" font-family="'Titilluim'" font-size="10" lengthAdjust="spacingAndGlyphs" textLength="38" x="41" y="25.4619">Class01</text><line style="stroke: #A80036; stroke-width: 1.5;" x1="17" x2="81" y1="36" y2="36"/><line style="stroke: #A80036; stroke-width: 1.5;" x1="17" x2="81" y1="44" y2="44"/><!--class Class02--><rect fill="#FEFECE" height="44" id="Class02" style="stroke: #A80036; stroke-width: 1.5;" width="66" x="16" y="125"/><ellipse cx="29" cy="139" fill="#ADD1B2" rx="9" ry="9" style="stroke: #A80036; stroke-width: 1.0;"/><path d="M30.7344,142.2344 Q30.3594,142.4375 29.9688,142.5391 Q29.5781,142.6406 29.125,142.6406 Q27.7344,142.6406 26.9531,141.6484 Q26.1719,140.6563 26.1719,138.8594 Q26.1719,137.0781 26.9531,136.0781 Q27.7344,135.0781 29.125,135.0781 Q29.5781,135.0781 29.9688,135.1797 Q30.3594,135.2813 30.7344,135.4844 L30.7344,136.4844 Q30.375,136.1875 29.9609,136.0313 Q29.5469,135.875 29.125,135.875 Q28.1719,135.875 27.6875,136.6172 Q27.2031,137.3594 27.2031,138.8594 Q27.2031,140.3594 27.6875,141.1016 Q28.1719,141.8438 29.125,141.8438 Q29.5625,141.8438 29.9766,141.6875 Q30.3906,141.5313 30.7344,141.2344 L30.7344,142.2344 Z "/><text fill="#222931" font-family="'Titilluim'" font-size="10" lengthAdjust="spacingAndGlyphs" textLength="38" x="41" y="142.4619">Class02</text><line style="stroke: #A80036; stroke-width: 1.5;" x1="17" x2="81" y1="153" y2="153"/><line style="stroke: #A80036; stroke-width: 1.5;" x1="17" x2="81" y1="161" y2="161"/><!--class Class03--><rect fill="#FEFECE" height="44" id="Class03" style="stroke: #A80036; stroke-width: 1.5;" width="66" x="117" y="8"/><ellipse cx="130" cy="22" fill="#ADD1B2" rx="9" ry="9" style="stroke: #A80036; stroke-width: 1.0;"/><path d="M131.7344,25.2344 Q131.3594,25.4375 130.9688,25.5391 Q130.5781,25.6406 130.125,25.6406 Q128.7344,25.6406 127.9531,24.6484 Q127.1719,23.6563 127.1719,21.8594 Q127.1719,20.0781 127.9531,19.0781 Q128.7344,18.0781 130.125,18.0781 Q130.5781,18.0781 130.9688,18.1797 Q131.3594,18.2813 131.7344,18.4844 L131.7344,19.4844 Q131.375,19.1875 130.9609,19.0313 Q130.5469,18.875 130.125,18.875 Q129.1719,18.875 128.6875,19.6172 Q128.2031,20.3594 128.2031,21.8594 Q128.2031,23.3594 128.6875,24.1016 Q129.1719,24.8438 130.125,24.8438 Q130.5625,24.8438 130.9766,24.6875 Q131.3906,24.5313 131.7344,24.2344 L131.7344,25.2344 Z "/><text fill="#222931" font-family="'Titilluim'" font-size="10" lengthAdjust="spacingAndGlyphs" textLength="38" x="142" y="25.4619">Class03</text><line style="stroke: #A80036; stroke-width: 1.5;" x1="118" x2="182" y1="36" y2="36"/><line style="stroke: #A80036; stroke-width: 1.5;" x1="118" x2="182" y1="44" y2="44"/><!--class Class04--><rect fill="#FEFECE" height="44" id="Class04" style="stroke: #A80036; stroke-width: 1.5;" width="66" x="117" y="125"/><ellipse cx="130" cy="139" fill="#ADD1B2" rx="9" ry="9" style="stroke: #A80036; stroke-width: 1.0;"/><path d="M131.7344,142.2344 Q131.3594,142.4375 130.9688,142.5391 Q130.5781,142.6406 130.125,142.6406 Q128.7344,142.6406 127.9531,141.6484 Q127.1719,140.6563 127.1719,138.8594 Q127.1719,137.0781 127.9531,136.0781 Q128.7344,135.0781 130.125,135.0781 Q130.5781,135.0781 130.9688,135.1797 Q131.3594,135.2813 131.7344,135.4844 L131.7344,136.4844 Q131.375,136.1875 130.9609,136.0313 Q130.5469,135.875 130.125,135.875 Q129.1719,135.875 128.6875,136.6172 Q128.2031,137.3594 128.2031,138.8594 Q128.2031,140.3594 128.6875,141.1016 Q129.1719,141.8438 130.125,141.8438 Q130.5625,141.8438 130.9766,141.6875 Q131.3906,141.5313 131.7344,141.2344 L131.7344,142.2344 Z "/><text fill="#222931" font-family="'Titilluim'" font-size="10" lengthAdjust="spacingAndGlyphs" textLength="38" x="142" y="142.4619">Class04</text><line style="stroke: #A80036; stroke-width: 1.5;" x1="118" x2="182" y1="153" y2="153"/><line style="stroke: #A80036; stroke-width: 1.5;" x1="118" x2="182" y1="161" y2="161"/><!--link Class01 to Class02--><path d="M49,65.2051 C49,84.5223 49,107.8899 49,124.6941 " fill="none" id="Class01-Class02" style="stroke: #00A599; stroke-width: 1.0;"/><polygon fill="#00A599" points="49,52.0068,45,58.0068,49,64.0068,53,58.0068,49,52.0068" style="stroke: #00A599; stroke-width: 1.0;"/><text fill="#222931" font-family="'Titilluim'" font-size="10" lengthAdjust="spacingAndGlyphs" textLength="42" x="50" y="92.2822">contains</text><text fill="#222931" font-family="'Titilluim'" font-size="10" lengthAdjust="spacingAndGlyphs" textLength="6" x="42.1563" y="69.1154">1</text><text fill="#222931" font-family="'Titilluim'" font-size="10" lengthAdjust="spacingAndGlyphs" textLength="28" x="16.7125" y="114.5589">many</text><!--link Class03 to Class04--><path d="M150,65.2051 C150,84.5223 150,107.8899 150,124.6941 " fill="none" id="Class03-Class04" style="stroke: #00A599; stroke-width: 1.0;"/><polygon fill="#FFFFFF" points="150,52.0068,146,58.0068,150,64.0068,154,58.0068,150,52.0068" style="stroke: #00A599; stroke-width: 1.0;"/><text fill="#222931" font-family="'Titilluim'" font-size="10" lengthAdjust="spacingAndGlyphs" textLength="59" x="151" y="92.2822">aggregation</text></g></svg>