<?xml version="1.0" encoding="UTF-8" standalone="no"?><svg xmlns="http://www.w3.org/2000/svg" xmlns:xlink="http://www.w3.org/1999/xlink" contentScriptType="application/ecmascript" contentStyleType="text/css" height="404px" preserveAspectRatio="none" style="width:342px;height:404px;" version="1.1" viewBox="0 0 342 404" width="342px" zoomAndPan="magnify"><defs/><g><rect fill="#FAFAFA" height="389.0469" style="stroke: #00A599; stroke-width: 1.0;" width="165.5" x="158.5" y="4"/><text fill="#393939" font-family="'Titilluim'" font-size="10" lengthAdjust="spacingAndGlyphs" textLength="50" x="216.25" y="13.2822">Some Box</text><rect fill="#FFFFFF" height="196.125" style="stroke: #00A599; stroke-width: 1.0;" width="10" x="81" y="103.2813"/><rect fill="#FFFFFF" height="106.5625" style="stroke: #00A599; stroke-width: 1.0;" width="10" x="197" y="167.2031"/><rect fill="#FFFFFF" height="27.6406" style="stroke: #00A599; stroke-width: 1.0;" width="10" x="283" y="213.4844"/><rect fill="#FFFFFF" height="66.9219" style="stroke: #000000; stroke-width: 2.0;" width="177.5" x="152.5" y="182.2031"/><rect fill="#FFFFFF" height="27.6406" style="stroke: none; stroke-width: 1.0;" width="177.5" x="152.5" y="221.4844"/><line style="stroke: #00A599; stroke-width: 1.0; stroke-dasharray: 5.0,5.0;" x1="22" x2="22" y1="75.6406" y2="317.4063"/><line style="stroke: #00A599; stroke-width: 1.0; stroke-dasharray: 5.0,5.0;" x1="85.5" x2="85.5" y1="75.6406" y2="317.4063"/><line style="stroke: #00A599; stroke-width: 1.0; stroke-dasharray: 5.0,5.0;" x1="201.5" x2="201.5" y1="75.6406" y2="317.4063"/><line style="stroke: #00A599; stroke-width: 1.0; stroke-dasharray: 5.0,5.0;" x1="288" x2="288" y1="75.6406" y2="317.4063"/><text fill="#222931" font-family="'Titilluim'" font-size="10" lengthAdjust="spacingAndGlyphs" textLength="22" x="8" y="73.2822">User</text><ellipse cx="22" cy="12" fill="#00A599" rx="8" ry="8" style="stroke: #00A599; stroke-width: 1.0;"/><path d="M22,20 L22,47 M9,28 L35,28 M22,47 L9,62 M22,47 L35,62 " fill="none" style="stroke: #00A599; stroke-width: 1.0;"/><text fill="#222931" font-family="'Titilluim'" font-size="10" lengthAdjust="spacingAndGlyphs" textLength="22" x="8" y="325.6885">User</text><ellipse cx="22" cy="337.0469" fill="#00A599" rx="8" ry="8" style="stroke: #00A599; stroke-width: 1.0;"/><path d="M22,345.0469 L22,372.0469 M9,353.0469 L35,353.0469 M22,372.0469 L9,387.0469 M22,372.0469 L35,387.0469 " fill="none" style="stroke: #00A599; stroke-width: 1.0;"/><rect fill="#25DDD3" height="25.6406" style="stroke: #FFFFFF; stroke-width: 0.0;" width="65" x="53.5" y="49"/><text fill="#222931" font-family="'Titilluim'" font-size="10" lengthAdjust="spacingAndGlyphs" textLength="51" x="60.5" y="65.2822">First Class</text><rect fill="#25DDD3" height="25.6406" style="stroke: #FFFFFF; stroke-width: 0.0;" width="65" x="53.5" y="316.4063"/><text fill="#222931" font-family="'Titilluim'" font-size="10" lengthAdjust="spacingAndGlyphs" textLength="51" x="60.5" y="332.6885">First Class</text><rect fill="#25DDD3" height="25.6406" style="stroke: #FFFFFF; stroke-width: 0.0;" width="79" x="162.5" y="49"/><text fill="#222931" font-family="'Titilluim'" font-size="10" lengthAdjust="spacingAndGlyphs" textLength="65" x="169.5" y="65.2822">Second Class</text><rect fill="#25DDD3" height="25.6406" style="stroke: #FFFFFF; stroke-width: 0.0;" width="79" x="162.5" y="316.4063"/><text fill="#222931" font-family="'Titilluim'" font-size="10" lengthAdjust="spacingAndGlyphs" textLength="65" x="169.5" y="332.6885">Second Class</text><rect fill="#25DDD3" height="25.6406" style="stroke: #FFFFFF; stroke-width: 0.0;" width="64" x="256" y="49"/><text fill="#222931" font-family="'Titilluim'" font-size="10" lengthAdjust="spacingAndGlyphs" textLength="50" x="263" y="65.2822">Last Class</text><rect fill="#25DDD3" height="25.6406" style="stroke: #FFFFFF; stroke-width: 0.0;" width="64" x="256" y="316.4063"/><text fill="#222931" font-family="'Titilluim'" font-size="10" lengthAdjust="spacingAndGlyphs" textLength="50" x="263" y="332.6885">Last Class</text><rect fill="#FFFFFF" height="196.125" style="stroke: #00A599; stroke-width: 1.0;" width="10" x="81" y="103.2813"/><rect fill="#FFFFFF" height="106.5625" style="stroke: #00A599; stroke-width: 1.0;" width="10" x="197" y="167.2031"/><rect fill="#FFFFFF" height="27.6406" style="stroke: #00A599; stroke-width: 1.0;" width="10" x="283" y="213.4844"/><polygon fill="#00A599" points="69,99.2813,79,103.2813,69,107.2813,73,103.2813" style="stroke: #00A599; stroke-width: 1.0;"/><line style="stroke: #00A599; stroke-width: 1.0;" x1="22" x2="75" y1="103.2813" y2="103.2813"/><text fill="#222931" font-family="'Titilluim'" font-size="10" lengthAdjust="spacingAndGlyphs" textLength="40" x="29" y="98.9229">DoWork</text><rect fill="#FFFFFF" height="33.2813" style="stroke: #000000; stroke-width: 2.0;" width="71" x="50.5" y="111.2813"/><polygon fill="#EEEEEE" points="50.5,111.2813,109.5,111.2813,109.5,114.2813,99.5,124.2813,50.5,124.2813,50.5,111.2813" style="stroke: #000000; stroke-width: 2.0;"/><text fill="#222931" font-family="'Titilluim'" font-size="10" lengthAdjust="spacingAndGlyphs" textLength="14" x="63.5" y="122.5635">ref</text><text fill="#222931" font-family="'Titilluim'" font-size="10" lengthAdjust="spacingAndGlyphs" textLength="58" x="57" y="137.5635">"Some Ref"</text><polygon fill="#00A599" points="185,163.2031,195,167.2031,185,171.2031,189,167.2031" style="stroke: #00A599; stroke-width: 1.0;"/><line style="stroke: #00A599; stroke-width: 1.0;" x1="91" x2="191" y1="167.2031" y2="167.2031"/><text fill="#222931" font-family="'Titilluim'" font-size="10" lengthAdjust="spacingAndGlyphs" textLength="76" x="98" y="162.8447">Create Request</text><path d="M152.5,182.2031 L210.5,182.2031 L210.5,185.2031 L200.5,195.2031 L152.5,195.2031 L152.5,182.2031 " fill="#EEEEEE" style="stroke: #000000; stroke-width: 1.0;"/><rect fill="none" height="66.9219" style="stroke: #000000; stroke-width: 2.0;" width="177.5" x="152.5" y="182.2031"/><text fill="#222931" font-family="'Titilluim'" font-size="10" lengthAdjust="spacingAndGlyphs" textLength="13" x="167.5" y="192.4854">alt</text><text fill="#222931" font-family="'Titilluim'" font-size="10" lengthAdjust="spacingAndGlyphs" textLength="54" x="225.5" y="193.4854">[condition]</text><polygon fill="#00A599" points="271,209.4844,281,213.4844,271,217.4844,275,213.4844" style="stroke: #00A599; stroke-width: 1.0;"/><line style="stroke: #00A599; stroke-width: 1.0;" x1="207" x2="277" y1="213.4844" y2="213.4844"/><text fill="#222931" font-family="'Titilluim'" font-size="10" lengthAdjust="spacingAndGlyphs" textLength="40" x="214" y="209.126">DoWork</text><line style="stroke: #000000; stroke-width: 1.0; stroke-dasharray: 2.0,2.0;" x1="152.5" x2="330" y1="222.4844" y2="222.4844"/><polygon fill="#00A599" points="218,237.125,208,241.125,218,245.125,214,241.125" style="stroke: #00A599; stroke-width: 1.0;"/><line style="stroke: #00A599; stroke-width: 1.0; stroke-dasharray: 2.0,2.0;" x1="212" x2="287" y1="241.125" y2="241.125"/><text fill="#222931" font-family="'Titilluim'" font-size="10" lengthAdjust="spacingAndGlyphs" textLength="52" x="224" y="236.7666">WorkDone</text><line style="stroke: #00A599; stroke-width: 2.0;" x1="279" x2="297" y1="232.125" y2="250.125"/><line style="stroke: #00A599; stroke-width: 2.0;" x1="279" x2="297" y1="250.125" y2="232.125"/><polygon fill="#00A599" points="102,269.7656,92,273.7656,102,277.7656,98,273.7656" style="stroke: #00A599; stroke-width: 1.0;"/><line style="stroke: #00A599; stroke-width: 1.0; stroke-dasharray: 2.0,2.0;" x1="96" x2="201" y1="273.7656" y2="273.7656"/><text fill="#222931" font-family="'Titilluim'" font-size="10" lengthAdjust="spacingAndGlyphs" textLength="82" x="108" y="269.4072">Request Created</text><polygon fill="#00A599" points="33,295.4063,23,299.4063,33,303.4063,29,299.4063" style="stroke: #00A599; stroke-width: 1.0;"/><line style="stroke: #00A599; stroke-width: 1.0; stroke-dasharray: 2.0,2.0;" x1="27" x2="85" y1="299.4063" y2="299.4063"/><text fill="#222931" font-family="'Titilluim'" font-size="10" lengthAdjust="spacingAndGlyphs" textLength="26" x="39" y="295.0479">Done</text></g></svg>