<?xml version="1.0" encoding="UTF-8" standalone="no"?><svg xmlns="http://www.w3.org/2000/svg" xmlns:xlink="http://www.w3.org/1999/xlink" contentScriptType="application/ecmascript" contentStyleType="text/css" height="186px" preserveAspectRatio="none" style="width:378px;height:186px;" version="1.1" viewBox="0 0 378 186" width="378px" zoomAndPan="magnify"><defs/><g><!--entity AA--><rect fill="#FEFECE" height="53.2813" style="stroke: #A80036; stroke-width: 1.5;" width="95" x="6" y="8"/><rect fill="#FEFECE" height="10" style="stroke: #A80036; stroke-width: 1.5;" width="15" x="81" y="13"/><rect fill="#FEFECE" height="2" style="stroke: #A80036; stroke-width: 1.5;" width="4" x="79" y="15"/><rect fill="#FEFECE" height="2" style="stroke: #A80036; stroke-width: 1.5;" width="4" x="79" y="19"/><text fill="#222931" font-family="'Titilluim'" font-size="10" lengthAdjust="spacingAndGlyphs" textLength="55" x="21" y="37.2822">«static lib»</text><text fill="#222931" font-family="'Titilluim'" font-size="10" lengthAdjust="spacingAndGlyphs" textLength="14" x="41.5" y="48.9229">AA</text><!--entity BB--><rect fill="#FEFECE" height="53.2813" style="stroke: #A80036; stroke-width: 1.5;" width="100" x="136.5" y="8"/><rect fill="#FEFECE" height="10" style="stroke: #A80036; stroke-width: 1.5;" width="15" x="216.5" y="13"/><rect fill="#FEFECE" height="2" style="stroke: #A80036; stroke-width: 1.5;" width="4" x="214.5" y="15"/><rect fill="#FEFECE" height="2" style="stroke: #A80036; stroke-width: 1.5;" width="4" x="214.5" y="19"/><text fill="#222931" font-family="'Titilluim'" font-size="10" lengthAdjust="spacingAndGlyphs" textLength="60" x="151.5" y="37.2822">«shared lib»</text><text fill="#222931" font-family="'Titilluim'" font-size="10" lengthAdjust="spacingAndGlyphs" textLength="14" x="174.5" y="48.9229">BB</text><!--entity CC--><rect fill="#FEFECE" height="53.2813" style="stroke: #A80036; stroke-width: 1.5;" width="95" x="272" y="8"/><rect fill="#FEFECE" height="10" style="stroke: #A80036; stroke-width: 1.5;" width="15" x="347" y="13"/><rect fill="#FEFECE" height="2" style="stroke: #A80036; stroke-width: 1.5;" width="4" x="345" y="15"/><rect fill="#FEFECE" height="2" style="stroke: #A80036; stroke-width: 1.5;" width="4" x="345" y="19"/><text fill="#222931" font-family="'Titilluim'" font-size="10" lengthAdjust="spacingAndGlyphs" textLength="55" x="287" y="37.2822">«static lib»</text><text fill="#222931" font-family="'Titilluim'" font-size="10" lengthAdjust="spacingAndGlyphs" textLength="14" x="307.5" y="48.9229">CC</text><!--entity node1--><polygon fill="#FEFECE" points="18.5,136.5,28.5,126.5,88.5,126.5,88.5,158.1406,78.5,168.1406,18.5,168.1406,18.5,136.5" style="stroke: #000000; stroke-width: 1.5;"/><line style="stroke: #000000; stroke-width: 1.5;" x1="78.5" x2="87.5" y1="136.5" y2="127.5"/><line style="stroke: #000000; stroke-width: 1.5;" x1="18.5" x2="78.5" y1="136.5" y2="136.5"/><line style="stroke: #000000; stroke-width: 1.5;" x1="78.5" x2="78.5" y1="136.5" y2="168.1406"/><text fill="#222931" font-family="'Titilluim'" font-size="10" lengthAdjust="spacingAndGlyphs" textLength="30" x="33.5" y="155.7822">node1</text><!--entity node2--><polygon fill="#FEFECE" points="123.5,131,133.5,121,235.5,121,235.5,164.2813,225.5,174.2813,123.5,174.2813,123.5,131" style="stroke: #000000; stroke-width: 1.5;"/><line style="stroke: #000000; stroke-width: 1.5;" x1="225.5" x2="234.5" y1="131" y2="122"/><line style="stroke: #000000; stroke-width: 1.5;" x1="123.5" x2="225.5" y1="131" y2="131"/><line style="stroke: #000000; stroke-width: 1.5;" x1="225.5" x2="225.5" y1="131" y2="174.2813"/><text fill="#222931" font-family="'Titilluim'" font-size="10" lengthAdjust="spacingAndGlyphs" textLength="72" x="138.5" y="150.2822">«shared node»</text><text fill="#222931" font-family="'Titilluim'" font-size="10" lengthAdjust="spacingAndGlyphs" textLength="30" x="159.5" y="161.9229">node2</text><!--entity Production--><path d="M271,137 C271,127 307.5,127 307.5,127 C307.5,127 344,127 344,137 L344,157.6406 C344,167.6406 307.5,167.6406 307.5,167.6406 C307.5,167.6406 271,167.6406 271,157.6406 L271,137 " fill="#FEFECE" style="stroke: #000000; stroke-width: 1.5;"/><path d="M271,137 C271,147 307.5,147 307.5,147 C307.5,147 344,147 344,137 " fill="none" style="stroke: #000000; stroke-width: 1.5;"/><text fill="#222931" font-family="'Titilluim'" font-size="10" lengthAdjust="spacingAndGlyphs" textLength="53" x="281" y="160.2822">Production</text><!--link AA to BB--><!--link BB to CC--><!--link AA to node1--><!--link node1 to node2--><!--link node2 to Production--></g></svg>