<?xml version="1.0" encoding="UTF-8" standalone="no"?><svg xmlns="http://www.w3.org/2000/svg" xmlns:xlink="http://www.w3.org/1999/xlink" contentScriptType="application/ecmascript" contentStyleType="text/css" height="183px" preserveAspectRatio="none" style="width:272px;height:183px;" version="1.1" viewBox="0 0 272 183" width="272px" zoomAndPan="magnify"><defs/><g><!--entity DA--><ellipse cx="15" cy="29" fill="#FEFECE" rx="8" ry="8" style="stroke: #A80036; stroke-width: 2.0;"/><text fill="#222931" font-family="'Titilluim'" font-size="10" lengthAdjust="spacingAndGlyphs" textLength="62" x="-16" y="55.2822">Data Access</text><!--entity First Component--><rect fill="#FEFECE" height="41.6406" style="stroke: #A80036; stroke-width: 1.5;" width="122" x="59" y="8"/><rect fill="#FEFECE" height="10" style="stroke: #A80036; stroke-width: 1.5;" width="15" x="161" y="13"/><rect fill="#FEFECE" height="2" style="stroke: #A80036; stroke-width: 1.5;" width="4" x="159" y="15"/><rect fill="#FEFECE" height="2" style="stroke: #A80036; stroke-width: 1.5;" width="4" x="159" y="19"/><text fill="#222931" font-family="'Titilluim'" font-size="10" lengthAdjust="spacingAndGlyphs" textLength="82" x="74" y="37.2822">First Component</text><!--entity HTTP--><ellipse cx="120" cy="144" fill="#FEFECE" rx="8" ry="8" style="stroke: #A80036; stroke-width: 2.0;"/><text fill="#222931" font-family="'Titilluim'" font-size="10" lengthAdjust="spacingAndGlyphs" textLength="26" x="107" y="170.2822">HTTP</text><!--entity Web Server--><rect fill="#FEFECE" height="41.6406" style="stroke: #A80036; stroke-width: 1.5;" width="97" x="164.5" y="123"/><rect fill="#FEFECE" height="10" style="stroke: #A80036; stroke-width: 1.5;" width="15" x="241.5" y="128"/><rect fill="#FEFECE" height="2" style="stroke: #A80036; stroke-width: 1.5;" width="4" x="239.5" y="130"/><rect fill="#FEFECE" height="2" style="stroke: #A80036; stroke-width: 1.5;" width="4" x="239.5" y="134"/><text fill="#222931" font-family="'Titilluim'" font-size="10" lengthAdjust="spacingAndGlyphs" textLength="57" x="179.5" y="152.2822">Web Server</text><!--link DA to First Component--><path d="M24.0234,29 C35.6456,29 47.2678,29 58.8899,29 " fill="none" id="DA-First Component" style="stroke: #00A599; stroke-width: 1.0;"/><!--link First Component to HTTP--><path d="M120,50.0928 C120,73.2082 120,109.659 120,129.6696 " fill="none" id="First Component-HTTP" style="stroke: #00A599; stroke-width: 1.0; stroke-dasharray: 7.0,7.0;"/><polygon fill="#00A599" points="120,134.8529,124,125.8529,120,129.8529,116,125.8529,120,134.8529" style="stroke: #00A599; stroke-width: 1.0;"/><text fill="#222931" font-family="'Titilluim'" font-size="10" lengthAdjust="spacingAndGlyphs" textLength="17" x="121" y="90.2822">use</text><!--link HTTP to Web Server--><path d="M129.082,144 C140.883,144 152.684,144 164.4849,144 " fill="none" id="HTTP-Web Server" style="stroke: #00A599; stroke-width: 1.0;"/></g></svg>