<?xml version="1.0" encoding="UTF-8" standalone="no"?><svg xmlns="http://www.w3.org/2000/svg" xmlns:xlink="http://www.w3.org/1999/xlink" contentScriptType="application/ecmascript" contentStyleType="text/css" height="200px" preserveAspectRatio="none" style="width:290px;height:200px;" version="1.1" viewBox="0 0 290 200" width="290px" zoomAndPan="magnify"><defs/><g><!--entity User--><ellipse cx="30" cy="29.6406" fill="#00A599" rx="8" ry="8" style="stroke: #00A599; stroke-width: 2.0;"/><path d="M30,37.6406 L30,64.6406 M17,45.6406 L43,45.6406 M30,64.6406 L17,79.6406 M30,64.6406 L43,79.6406 " fill="none" style="stroke: #00A599; stroke-width: 2.0;"/><text fill="#222931" font-family="'Titilluim'" font-size="10" lengthAdjust="spacingAndGlyphs" textLength="22" x="19" y="91.9229">User</text><text fill="#222931" font-family="'Titilluim'" font-size="10" lengthAdjust="spacingAndGlyphs" textLength="48" x="6" y="17.2822">«Human»</text><!--entity MySql--><ellipse cx="241" cy="29.6406" fill="#00A599" rx="8" ry="8" style="stroke: #00A599; stroke-width: 2.0;"/><path d="M241,37.6406 L241,64.6406 M228,45.6406 L254,45.6406 M241,64.6406 L228,79.6406 M241,64.6406 L254,79.6406 " fill="none" style="stroke: #00A599; stroke-width: 2.0;"/><text fill="#222931" font-family="'Titilluim'" font-size="10" lengthAdjust="spacingAndGlyphs" textLength="74" x="204" y="91.9229">Main Database</text><text fill="#222931" font-family="'Titilluim'" font-size="10" lengthAdjust="spacingAndGlyphs" textLength="68" x="207" y="17.2822">«Application»</text><ellipse cx="128.8969" cy="50.8661" fill="#FEFECE" rx="39.3969" ry="17.8661" style="stroke: #A80036; stroke-width: 1.5;"/><text fill="#222931" font-family="'Titilluim'" font-size="10" lengthAdjust="spacingAndGlyphs" textLength="57" x="100.3969" y="49.7603">«One Shot»</text><text fill="#222931" font-family="'Titilluim'" font-size="10" lengthAdjust="spacingAndGlyphs" textLength="24" x="116.8969" y="61.4009">Start</text><ellipse cx="134.9136" cy="171.8053" fill="#FEFECE" rx="63.4136" ry="17.8053" style="stroke: #A80036; stroke-width: 1.5;"/><text fill="#222931" font-family="'Titilluim'" font-size="10" lengthAdjust="spacingAndGlyphs" textLength="36" x="116.9136" y="165.813">«Main»</text><text fill="#222931" font-family="'Titilluim'" font-size="10" lengthAdjust="spacingAndGlyphs" textLength="95" x="87.4136" y="177.4537">Use the application</text><!--link User to Start--><path d="M54.3633,51 C64.2942,51 74.2251,51 84.156,51 " fill="none" id="User-Start" style="stroke: #00A599; stroke-width: 1.0;"/><polygon fill="#00A599" points="89.3492,51,80.3492,47,84.3492,51,80.3492,55,89.3492,51" style="stroke: #00A599; stroke-width: 1.0;"/><!--link User to Use--><path d="M54.0891,78.7598 C73.0476,100.6072 99.0795,130.6059 116.4421,150.6142 " fill="none" id="User-Use" style="stroke: #00A599; stroke-width: 1.0;"/><polygon fill="#00A599" points="119.7943,154.4773,116.9169,145.0582,116.5173,150.7009,110.8746,150.3013,119.7943,154.4773" style="stroke: #00A599; stroke-width: 1.0;"/><!--link MySql to Use--><path d="M203.9263,93.3199 C186.9748,112.6703 167.6269,134.7561 153.7539,150.5923 " fill="none" id="MySql-Use" style="stroke: #00A599; stroke-width: 1.0;"/><polygon fill="#00A599" points="150.3496,154.4783,159.2889,150.3445,153.6444,150.7174,153.2715,145.0728,150.3496,154.4783" style="stroke: #00A599; stroke-width: 1.0;"/></g></svg>